<mxfile host="Electron" modified="2024-01-18T21:31:19.602Z" agent="Mozilla/5.0 (Windows NT 10.0; Win64; x64) AppleWebKit/537.36 (KHTML, like Gecko) draw.io/22.0.3 Chrome/114.0.5735.289 Electron/25.8.4 Safari/537.36" etag="SIgd7CfWi_RWhlHNWIa5" version="22.0.3" type="device">
  <diagram id="C5RBs43oDa-KdzZeNtuy" name="Page-1">
    <mxGraphModel dx="1418" dy="828" grid="1" gridSize="10" guides="1" tooltips="1" connect="1" arrows="1" fold="1" page="1" pageScale="1" pageWidth="827" pageHeight="1169" math="0" shadow="0">
      <root>
        <mxCell id="WIyWlLk6GJQsqaUBKTNV-0" />
        <mxCell id="WIyWlLk6GJQsqaUBKTNV-1" parent="WIyWlLk6GJQsqaUBKTNV-0" />
        <mxCell id="C761jQ6LU1gqeiuPV5th-2" value="" style="edgeStyle=orthogonalEdgeStyle;rounded=0;orthogonalLoop=1;jettySize=auto;html=1;" edge="1" parent="WIyWlLk6GJQsqaUBKTNV-1" source="C761jQ6LU1gqeiuPV5th-0" target="C761jQ6LU1gqeiuPV5th-1">
          <mxGeometry relative="1" as="geometry" />
        </mxCell>
        <mxCell id="C761jQ6LU1gqeiuPV5th-0" value="Start The Game" style="rounded=1;whiteSpace=wrap;html=1;" vertex="1" parent="WIyWlLk6GJQsqaUBKTNV-1">
          <mxGeometry x="320" y="20" width="154" height="40" as="geometry" />
        </mxCell>
        <mxCell id="C761jQ6LU1gqeiuPV5th-4" value="" style="edgeStyle=orthogonalEdgeStyle;rounded=0;orthogonalLoop=1;jettySize=auto;html=1;" edge="1" parent="WIyWlLk6GJQsqaUBKTNV-1" source="C761jQ6LU1gqeiuPV5th-1" target="C761jQ6LU1gqeiuPV5th-3">
          <mxGeometry relative="1" as="geometry" />
        </mxCell>
        <mxCell id="C761jQ6LU1gqeiuPV5th-1" value="Print Logo" style="rounded=1;whiteSpace=wrap;html=1;" vertex="1" parent="WIyWlLk6GJQsqaUBKTNV-1">
          <mxGeometry x="320" y="100" width="154" height="40" as="geometry" />
        </mxCell>
        <mxCell id="C761jQ6LU1gqeiuPV5th-6" value="" style="edgeStyle=orthogonalEdgeStyle;rounded=0;orthogonalLoop=1;jettySize=auto;html=1;" edge="1" parent="WIyWlLk6GJQsqaUBKTNV-1" source="C761jQ6LU1gqeiuPV5th-3" target="C761jQ6LU1gqeiuPV5th-5">
          <mxGeometry relative="1" as="geometry" />
        </mxCell>
        <mxCell id="C761jQ6LU1gqeiuPV5th-3" value="Generate Celebrities Data" style="rounded=1;whiteSpace=wrap;html=1;" vertex="1" parent="WIyWlLk6GJQsqaUBKTNV-1">
          <mxGeometry x="320" y="180" width="154" height="40" as="geometry" />
        </mxCell>
        <mxCell id="C761jQ6LU1gqeiuPV5th-8" value="" style="edgeStyle=orthogonalEdgeStyle;rounded=0;orthogonalLoop=1;jettySize=auto;html=1;" edge="1" parent="WIyWlLk6GJQsqaUBKTNV-1" source="C761jQ6LU1gqeiuPV5th-5">
          <mxGeometry relative="1" as="geometry">
            <mxPoint x="397" y="330" as="targetPoint" />
          </mxGeometry>
        </mxCell>
        <mxCell id="C761jQ6LU1gqeiuPV5th-36" value="" style="edgeStyle=orthogonalEdgeStyle;rounded=0;orthogonalLoop=1;jettySize=auto;html=1;" edge="1" parent="WIyWlLk6GJQsqaUBKTNV-1" source="C761jQ6LU1gqeiuPV5th-5" target="C761jQ6LU1gqeiuPV5th-35">
          <mxGeometry relative="1" as="geometry" />
        </mxCell>
        <mxCell id="C761jQ6LU1gqeiuPV5th-38" value="" style="edgeStyle=orthogonalEdgeStyle;rounded=0;orthogonalLoop=1;jettySize=auto;html=1;" edge="1" parent="WIyWlLk6GJQsqaUBKTNV-1" source="C761jQ6LU1gqeiuPV5th-5" target="C761jQ6LU1gqeiuPV5th-37">
          <mxGeometry relative="1" as="geometry" />
        </mxCell>
        <mxCell id="C761jQ6LU1gqeiuPV5th-5" value="Print Vs" style="rounded=1;whiteSpace=wrap;html=1;" vertex="1" parent="WIyWlLk6GJQsqaUBKTNV-1">
          <mxGeometry x="320" y="250" width="154" height="40" as="geometry" />
        </mxCell>
        <mxCell id="C761jQ6LU1gqeiuPV5th-12" value="" style="edgeStyle=orthogonalEdgeStyle;rounded=0;orthogonalLoop=1;jettySize=auto;html=1;" edge="1" parent="WIyWlLk6GJQsqaUBKTNV-1" source="C761jQ6LU1gqeiuPV5th-9" target="C761jQ6LU1gqeiuPV5th-11">
          <mxGeometry relative="1" as="geometry" />
        </mxCell>
        <mxCell id="C761jQ6LU1gqeiuPV5th-18" value="" style="edgeStyle=orthogonalEdgeStyle;rounded=0;orthogonalLoop=1;jettySize=auto;html=1;" edge="1" parent="WIyWlLk6GJQsqaUBKTNV-1" source="C761jQ6LU1gqeiuPV5th-9" target="C761jQ6LU1gqeiuPV5th-17">
          <mxGeometry relative="1" as="geometry" />
        </mxCell>
        <mxCell id="C761jQ6LU1gqeiuPV5th-30" value="" style="edgeStyle=orthogonalEdgeStyle;rounded=0;orthogonalLoop=1;jettySize=auto;html=1;" edge="1" parent="WIyWlLk6GJQsqaUBKTNV-1" source="C761jQ6LU1gqeiuPV5th-9" target="C761jQ6LU1gqeiuPV5th-29">
          <mxGeometry relative="1" as="geometry" />
        </mxCell>
        <mxCell id="C761jQ6LU1gqeiuPV5th-9" value="Ask user to select either A or B" style="rounded=1;whiteSpace=wrap;html=1;" vertex="1" parent="WIyWlLk6GJQsqaUBKTNV-1">
          <mxGeometry x="320" y="330" width="154" height="40" as="geometry" />
        </mxCell>
        <mxCell id="C761jQ6LU1gqeiuPV5th-14" value="" style="edgeStyle=orthogonalEdgeStyle;rounded=0;orthogonalLoop=1;jettySize=auto;html=1;" edge="1" parent="WIyWlLk6GJQsqaUBKTNV-1" source="C761jQ6LU1gqeiuPV5th-11" target="C761jQ6LU1gqeiuPV5th-13">
          <mxGeometry relative="1" as="geometry" />
        </mxCell>
        <mxCell id="C761jQ6LU1gqeiuPV5th-11" value="if A has greater followers than B" style="rounded=1;whiteSpace=wrap;html=1;" vertex="1" parent="WIyWlLk6GJQsqaUBKTNV-1">
          <mxGeometry x="86" y="410" width="154" height="40" as="geometry" />
        </mxCell>
        <mxCell id="C761jQ6LU1gqeiuPV5th-16" value="" style="edgeStyle=orthogonalEdgeStyle;rounded=0;orthogonalLoop=1;jettySize=auto;html=1;" edge="1" parent="WIyWlLk6GJQsqaUBKTNV-1" source="C761jQ6LU1gqeiuPV5th-13" target="C761jQ6LU1gqeiuPV5th-15">
          <mxGeometry relative="1" as="geometry" />
        </mxCell>
        <mxCell id="C761jQ6LU1gqeiuPV5th-13" value="Score a point" style="rounded=1;whiteSpace=wrap;html=1;" vertex="1" parent="WIyWlLk6GJQsqaUBKTNV-1">
          <mxGeometry x="86" y="560" width="154" height="40" as="geometry" />
        </mxCell>
        <mxCell id="C761jQ6LU1gqeiuPV5th-25" value="" style="edgeStyle=orthogonalEdgeStyle;rounded=0;orthogonalLoop=1;jettySize=auto;html=1;" edge="1" parent="WIyWlLk6GJQsqaUBKTNV-1" source="C761jQ6LU1gqeiuPV5th-15">
          <mxGeometry relative="1" as="geometry">
            <mxPoint x="397" y="650" as="targetPoint" />
          </mxGeometry>
        </mxCell>
        <mxCell id="C761jQ6LU1gqeiuPV5th-15" value="A = B&lt;br&gt;Generate new option for B" style="rounded=1;whiteSpace=wrap;html=1;" vertex="1" parent="WIyWlLk6GJQsqaUBKTNV-1">
          <mxGeometry x="320" y="560" width="154" height="40" as="geometry" />
        </mxCell>
        <mxCell id="C761jQ6LU1gqeiuPV5th-20" value="" style="edgeStyle=orthogonalEdgeStyle;rounded=0;orthogonalLoop=1;jettySize=auto;html=1;" edge="1" parent="WIyWlLk6GJQsqaUBKTNV-1" source="C761jQ6LU1gqeiuPV5th-17" target="C761jQ6LU1gqeiuPV5th-19">
          <mxGeometry relative="1" as="geometry" />
        </mxCell>
        <mxCell id="C761jQ6LU1gqeiuPV5th-17" value="if B has greater followers than A" style="rounded=1;whiteSpace=wrap;html=1;" vertex="1" parent="WIyWlLk6GJQsqaUBKTNV-1">
          <mxGeometry x="554" y="410" width="154" height="40" as="geometry" />
        </mxCell>
        <mxCell id="C761jQ6LU1gqeiuPV5th-21" value="" style="edgeStyle=orthogonalEdgeStyle;rounded=0;orthogonalLoop=1;jettySize=auto;html=1;" edge="1" parent="WIyWlLk6GJQsqaUBKTNV-1" source="C761jQ6LU1gqeiuPV5th-19" target="C761jQ6LU1gqeiuPV5th-15">
          <mxGeometry relative="1" as="geometry" />
        </mxCell>
        <mxCell id="C761jQ6LU1gqeiuPV5th-19" value="Score a point" style="rounded=1;whiteSpace=wrap;html=1;" vertex="1" parent="WIyWlLk6GJQsqaUBKTNV-1">
          <mxGeometry x="554" y="560" width="154" height="40" as="geometry" />
        </mxCell>
        <mxCell id="C761jQ6LU1gqeiuPV5th-22" value="A" style="text;html=1;align=center;verticalAlign=middle;resizable=0;points=[];autosize=1;strokeColor=none;fillColor=none;" vertex="1" parent="WIyWlLk6GJQsqaUBKTNV-1">
          <mxGeometry x="210" y="320" width="30" height="30" as="geometry" />
        </mxCell>
        <mxCell id="C761jQ6LU1gqeiuPV5th-23" value="B&lt;br&gt;" style="text;html=1;align=center;verticalAlign=middle;resizable=0;points=[];autosize=1;strokeColor=none;fillColor=none;" vertex="1" parent="WIyWlLk6GJQsqaUBKTNV-1">
          <mxGeometry x="550" y="320" width="30" height="30" as="geometry" />
        </mxCell>
        <mxCell id="C761jQ6LU1gqeiuPV5th-32" value="" style="edgeStyle=orthogonalEdgeStyle;rounded=0;orthogonalLoop=1;jettySize=auto;html=1;entryX=0;entryY=0.5;entryDx=0;entryDy=0;" edge="1" parent="WIyWlLk6GJQsqaUBKTNV-1" source="C761jQ6LU1gqeiuPV5th-26" target="C761jQ6LU1gqeiuPV5th-11">
          <mxGeometry relative="1" as="geometry">
            <mxPoint x="240" y="670" as="targetPoint" />
          </mxGeometry>
        </mxCell>
        <mxCell id="C761jQ6LU1gqeiuPV5th-34" value="" style="edgeStyle=orthogonalEdgeStyle;rounded=0;orthogonalLoop=1;jettySize=auto;html=1;entryX=1;entryY=0.5;entryDx=0;entryDy=0;" edge="1" parent="WIyWlLk6GJQsqaUBKTNV-1" source="C761jQ6LU1gqeiuPV5th-26" target="C761jQ6LU1gqeiuPV5th-17">
          <mxGeometry relative="1" as="geometry">
            <mxPoint x="554" y="670" as="targetPoint" />
          </mxGeometry>
        </mxCell>
        <mxCell id="C761jQ6LU1gqeiuPV5th-26" value="Ask user to select either A ot B" style="rounded=1;whiteSpace=wrap;html=1;" vertex="1" parent="WIyWlLk6GJQsqaUBKTNV-1">
          <mxGeometry x="320" y="650" width="154" height="40" as="geometry" />
        </mxCell>
        <mxCell id="C761jQ6LU1gqeiuPV5th-29" value="If either selected option is lesser than the other. &lt;br&gt;Game over" style="rounded=1;whiteSpace=wrap;html=1;" vertex="1" parent="WIyWlLk6GJQsqaUBKTNV-1">
          <mxGeometry x="320" y="460" width="154" height="40" as="geometry" />
        </mxCell>
        <mxCell id="C761jQ6LU1gqeiuPV5th-35" value="Display Option B" style="rounded=1;whiteSpace=wrap;html=1;" vertex="1" parent="WIyWlLk6GJQsqaUBKTNV-1">
          <mxGeometry x="554" y="250" width="154" height="40" as="geometry" />
        </mxCell>
        <mxCell id="C761jQ6LU1gqeiuPV5th-37" value="Display Option A" style="rounded=1;whiteSpace=wrap;html=1;" vertex="1" parent="WIyWlLk6GJQsqaUBKTNV-1">
          <mxGeometry x="86" y="250" width="154" height="40" as="geometry" />
        </mxCell>
      </root>
    </mxGraphModel>
  </diagram>
</mxfile>
